<svg width="18" height="21" viewBox="0 0 18 21" fill="none" xmlns="http://www.w3.org/2000/svg">
<path d="M9.9 17.5C11.093 17.4986 12.2368 17.0372 13.0804 16.2171C13.924 15.3969 14.3986 14.2849 14.4 13.125V5.46264C14.4014 5.0027 14.3089 4.54707 14.1278 4.12215C13.9468 3.69724 13.6807 3.31149 13.3452 2.98726L11.3274 1.02551C10.9939 0.699292 10.5971 0.440667 10.1601 0.264633C9.72303 0.088598 9.25438 -0.00134571 8.7813 1.52159e-05H4.5C3.30696 0.00140459 2.1632 0.462787 1.3196 1.28296C0.475994 2.10313 0.00142907 3.21512 0 4.37501V13.125C0.00142907 14.2849 0.475994 15.3969 1.3196 16.2171C2.1632 17.0372 3.30696 17.4986 4.5 17.5H9.9ZM1.8 13.125V4.37501C1.8 3.67882 2.08446 3.01114 2.59081 2.51886C3.09716 2.02658 3.78392 1.75001 4.5 1.75001C4.5 1.75001 8.9271 1.76226 9 1.77101V3.50001C9 3.96414 9.18964 4.40926 9.52721 4.73745C9.86477 5.06564 10.3226 5.25001 10.8 5.25001H12.5784C12.5874 5.32089 12.6 13.125 12.6 13.125C12.6 13.8212 12.3155 14.4889 11.8092 14.9812C11.3028 15.4734 10.6161 15.75 9.9 15.75H4.5C3.78392 15.75 3.09716 15.4734 2.59081 14.9812C2.08446 14.4889 1.8 13.8212 1.8 13.125ZM18 7.00001V16.625C17.9986 17.7849 17.524 18.8969 16.6804 19.7171C15.8368 20.5372 14.693 20.9986 13.5 21H5.4C5.1613 21 4.93239 20.9078 4.7636 20.7437C4.59482 20.5796 4.5 20.3571 4.5 20.125C4.5 19.8929 4.59482 19.6704 4.7636 19.5063C4.93239 19.3422 5.1613 19.25 5.4 19.25H13.5C14.2161 19.25 14.9028 18.9734 15.4092 18.4812C15.9155 17.9889 16.2 17.3212 16.2 16.625V7.00001C16.2 6.76795 16.2948 6.54539 16.4636 6.38129C16.6324 6.2172 16.8613 6.12501 17.1 6.12501C17.3387 6.12501 17.5676 6.2172 17.7364 6.38129C17.9052 6.54539 18 6.76795 18 7.00001Z" fill="white"/>
</svg>
