<svg width="38" height="38" viewBox="0 0 38 38" fill="none" xmlns="http://www.w3.org/2000/svg">
<g clip-path="url(#clip0_422_284)">
<path d="M25.3334 12.6667C25.0364 12.3698 24.6338 12.2031 24.2139 12.2031C23.7941 12.2031 23.3914 12.3698 23.0945 12.6667L19 16.7612L14.9055 12.6667C14.6069 12.3782 14.2069 12.2187 13.7918 12.2223C13.3767 12.2259 12.9795 12.3924 12.686 12.686C12.3924 12.9795 12.2259 13.3766 12.2223 13.7918C12.2187 14.2069 12.3783 14.6069 12.6667 14.9055L16.7612 19L12.6667 23.0945C12.3783 23.3931 12.2187 23.7931 12.2223 24.2082C12.2259 24.6234 12.3924 25.0205 12.686 25.314C12.9795 25.6076 13.3767 25.7741 13.7918 25.7777C14.2069 25.7813 14.6069 25.6217 14.9055 25.3333L19 21.2388L23.0945 25.3333C23.3931 25.6217 23.7931 25.7813 24.2082 25.7777C24.6234 25.7741 25.0205 25.6076 25.3141 25.314C25.6076 25.0205 25.7741 24.6234 25.7778 24.2082C25.7814 23.7931 25.6218 23.3931 25.3334 23.0945L21.2389 19L25.3334 14.9055C25.6302 14.6086 25.7969 14.2059 25.7969 13.7861C25.7969 13.3662 25.6302 12.9636 25.3334 12.6667Z" fill="white"/>
<path d="M19 0C15.2422 0 11.5687 1.11433 8.44417 3.20208C5.31964 5.28982 2.88436 8.25722 1.4463 11.729C0.00823243 15.2008 -0.368031 19.0211 0.365088 22.7067C1.09821 26.3924 2.90778 29.7778 5.56498 32.435C8.22218 35.0922 11.6077 36.9018 15.2933 37.6349C18.9789 38.368 22.7992 37.9918 26.271 36.5537C29.7428 35.1156 32.7102 32.6804 34.7979 29.5558C36.8857 26.4313 38 22.7578 38 19C37.9946 13.9626 35.991 9.133 32.429 5.57099C28.867 2.00898 24.0374 0.00544838 19 0ZM19 34.8333C15.8685 34.8333 12.8073 33.9047 10.2035 32.1649C7.5997 30.4251 5.5703 27.9523 4.37192 25.0592C3.17353 22.166 2.85998 18.9824 3.47091 15.9111C4.08184 12.8397 5.58982 10.0185 7.80415 7.80414C10.0185 5.58981 12.8397 4.08183 15.9111 3.4709C18.9824 2.85997 22.166 3.17352 25.0592 4.37191C27.9523 5.5703 30.4252 7.59969 32.1649 10.2035C33.9047 12.8073 34.8333 15.8685 34.8333 19C34.8287 23.1978 33.1591 27.2224 30.1908 30.1908C27.2224 33.1591 23.1979 34.8287 19 34.8333Z" fill="white"/>
</g>
<defs>
<clipPath id="clip0_422_284">
<rect width="38" height="38" fill="white"/>
</clipPath>
</defs>
</svg>
