<svg width="20" height="19" viewBox="0 0 20 19" fill="none" xmlns="http://www.w3.org/2000/svg">
<path d="M14.5815 0C13.6435 0.0157747 12.726 0.298881 11.9215 0.82073C11.1171 1.34258 10.4543 2.08469 10 2.97212C9.54572 2.08469 8.8829 1.34258 8.07847 0.82073C7.27405 0.298881 6.35651 0.0157747 5.41852 0C3.92324 0.0702418 2.51444 0.777484 1.49991 1.96721C0.485388 3.15695 -0.0524034 4.73245 0.00403263 6.34954C0.00403263 10.4448 3.99076 14.9174 7.33441 17.9498C8.08096 18.6281 9.02486 19 10 19C10.9751 19 11.919 18.6281 12.6656 17.9498C16.0092 14.9174 19.996 10.4448 19.996 6.34954C20.0524 4.73245 19.5146 3.15695 18.5001 1.96721C17.4856 0.777484 16.0768 0.0702418 14.5815 0ZM11.5952 16.5718C11.1487 16.9784 10.5837 17.2013 10 17.2013C9.41628 17.2013 8.85131 16.9784 8.40481 16.5718C4.12487 12.6892 1.67003 8.96411 1.67003 6.34954C1.61308 5.20997 1.97521 4.09228 2.67742 3.24025C3.37964 2.38821 4.36497 1.87095 5.41852 1.80129C6.47206 1.87095 7.45739 2.38821 8.15961 3.24025C8.86182 4.09228 9.22395 5.20997 9.167 6.34954C9.167 6.5884 9.25477 6.81748 9.41098 6.98639C9.5672 7.15529 9.77908 7.25018 10 7.25018C10.2209 7.25018 10.4328 7.15529 10.589 6.98639C10.7452 6.81748 10.833 6.5884 10.833 6.34954C10.7761 5.20997 11.1382 4.09228 11.8404 3.24025C12.5426 2.38821 13.5279 1.87095 14.5815 1.80129C15.635 1.87095 16.6204 2.38821 17.3226 3.24025C18.0248 4.09228 18.3869 5.20997 18.33 6.34954C18.33 8.96411 15.8751 12.6892 11.5952 16.5682V16.5718Z" fill="black"/>
</svg>
