<svg width="22" height="21" viewBox="0 0 22 21" fill="none" xmlns="http://www.w3.org/2000/svg">
<path d="M16.0396 0C15.0078 0.0174352 13.9985 0.330343 13.1137 0.907123C12.2288 1.4839 11.4997 2.30413 11 3.28498C10.5003 2.30413 9.77118 1.4839 8.88632 0.907123C8.00146 0.330343 6.99216 0.0174352 5.96037 0C4.31556 0.0776357 2.76589 0.859325 1.64991 2.17429C0.533927 3.48926 -0.0576437 5.23061 0.00443589 7.01791C0.00443589 11.5442 4.38983 16.4876 8.06785 19.8393C8.88905 20.589 9.92734 21 11 21C12.0727 21 13.1109 20.589 13.9321 19.8393C17.6102 16.4876 21.9956 11.5442 21.9956 7.01791C22.0576 5.23061 21.4661 3.48926 20.3501 2.17429C19.2341 0.859325 17.6844 0.0776357 16.0396 0ZM12.7547 18.3162C12.2636 18.7656 11.6421 19.012 11 19.012C10.3579 19.012 9.73644 18.7656 9.24529 18.3162C4.53736 14.0249 1.83703 9.9077 1.83703 7.01791C1.77439 5.75839 2.17273 4.52305 2.94517 3.58132C3.7176 2.6396 4.80147 2.06789 5.96037 1.9909C7.11927 2.06789 8.20313 2.6396 8.97557 3.58132C9.748 4.52305 10.1463 5.75839 10.0837 7.01791C10.0837 7.28192 10.1802 7.53512 10.3521 7.7218C10.5239 7.90848 10.757 8.01336 11 8.01336C11.243 8.01336 11.4761 7.90848 11.6479 7.7218C11.8198 7.53512 11.9163 7.28192 11.9163 7.01791C11.8537 5.75839 12.252 4.52305 13.0244 3.58132C13.7969 2.6396 14.8807 2.06789 16.0396 1.9909C17.1985 2.06789 18.2824 2.6396 19.0548 3.58132C19.8273 4.52305 20.2256 5.75839 20.163 7.01791C20.163 9.9077 17.4626 14.0249 12.7547 18.3123V18.3162Z" fill="white"/>
</svg>
