<?xml version="1.0" encoding="UTF-8"?>
<svg version="1.1" xmlns="http://www.w3.org/2000/svg" width="33" height="33">
<path d="M0 0 C0.763125 -0.185625 1.52625 -0.37125 2.3125 -0.5625 C6.02338396 -1.16659739 7.85878123 0.07243394 11 2 C12.59643412 5.19286823 12.51370451 8.53420693 12 12 C10.125 14.5 10.125 14.5 8 16 C7.34 16 6.68 16 6 16 C6 17.98 6 19.96 6 22 C4.80375 22.433125 3.6075 22.86625 2.375 23.3125 C-0.31902133 24.30378602 -2.60102563 25.33657435 -5.125 26.75 C-8.63356965 28.27546507 -10.39690724 28.22832708 -14 27 C-15.375 24.9375 -15.375 24.9375 -16 23 C-16.66 23 -17.32 23 -18 23 C-18.62012423 18.92489794 -19.1625293 14.84616903 -19.625 10.75 C-19.72039063 9.91984375 -19.81578125 9.0896875 -19.9140625 8.234375 C-20 6 -20 6 -19 3 C-13.25491531 -1.43938362 -6.51239311 -4.3415954 0 0 Z " fill="#0E0E0E" transform="translate(20,3)"/>
<path d="M0 0 C3.71599191 -0.20086443 4.77208445 -0.1519437 8 2 C8.78375 1.835 9.5675 1.67 10.375 1.5 C13.5679844 0.8918125 15.12425924 1.60321163 18 3 C16.50155559 8.12371314 13.35872424 11.19155193 9.6875 14.875 C9.11837891 15.48085938 8.54925781 16.08671875 7.96289062 16.7109375 C6.36911011 18.32118647 4.89124651 19.75148857 3 21 C0.08203125 20.8828125 0.08203125 20.8828125 -2 20 C-1.68848604 16.36567046 -1.17084053 15.16656951 1.5 12.5625 C4.35979516 9.63120997 4.72033597 8.00851769 5 4 C2.525 3.01 2.525 3.01 0 2 C0 1.34 0 0.68 0 0 Z " fill="#EC9A56" transform="translate(12,1)"/>
<path d="M0 0 C3.375 1 3.375 1 4.9375 2.75 C5.55735092 5.93780472 4.96650713 7.14854973 3.375 10 C1.56549895 12.5396506 -0.21948025 15.00307332 -2.625 17 C-3.945 17 -5.265 17 -6.625 17 C-5.17182061 13.6092481 -3.21199688 11.58699688 -0.625 9 C-0.295 8.01 0.035 7.02 0.375 6 C-2.265 6.33 -4.905 6.66 -7.625 7 C-7.625 4 -7.625 4 -6.0625 1.75 C-3.625 0 -3.625 0 0 0 Z " fill="#0B0B0C" transform="translate(12.625,2)"/>
<path d="M0 0 C3.71599191 -0.20086443 4.77208445 -0.1519437 8 2 C8.78375 1.835 9.5675 1.67 10.375 1.5 C13.5679844 0.8918125 15.12425924 1.60321163 18 3 C16.73058503 6.91402949 15.48832306 8.79072873 12 11 C11.5875 10.484375 11.175 9.96875 10.75 9.4375 C10.1725 8.963125 9.595 8.48875 9 8 C6.83700789 8.22757731 6.83700789 8.22757731 5 9 C5 7.35 5 5.7 5 4 C2.525 3.01 2.525 3.01 0 2 C0 1.34 0 0.68 0 0 Z " fill="#555A61" transform="translate(12,1)"/>
<path d="M0 0 C0.66 0 1.32 0 2 0 C3.60725635 3.21451269 3.05748185 6.43612536 3 10 C0.03 11.65 -2.94 13.3 -6 15 C-6 14.01 -6 13.02 -6 12 C-6.99 11.67 -7.98 11.34 -9 11 C-8.43410156 10.45730469 -7.86820313 9.91460937 -7.28515625 9.35546875 C-6.55167969 8.64003906 -5.81820313 7.92460937 -5.0625 7.1875 C-3.96615234 6.12595703 -3.96615234 6.12595703 -2.84765625 5.04296875 C-0.79165354 3.04463837 -0.79165354 3.04463837 0 0 Z " fill="#0C0C0C" transform="translate(29,5)"/>
<path d="M0 0 C0.66 0.33 1.32 0.66 2 1 C1.01 2.485 1.01 2.485 0 4 C-0.66 4 -1.32 4 -2 4 C-2 4.99 -2 5.98 -2 7 C0.64 6.67 3.28 6.34 6 6 C5.6875 7.9375 5.6875 7.9375 5 10 C4.01 10.33 3.02 10.66 2 11 C0.83333333 12.91666667 0.83333333 12.91666667 0 15 C-0.33 15.66 -0.66 16.32 -1 17 C0.32 17 1.64 17 3 17 C4.75 19 4.75 19 6 21 C4.68 21 3.36 21 2 21 C2 20.34 2 19.68 2 19 C0.68 18.67 -0.64 18.34 -2 18 C-2.3125 15.75 -2.3125 15.75 -2 13 C0.4375 10.8125 0.4375 10.8125 3 9 C3.33 8.34 3.66 7.68 4 7 C1.69 7.33 -0.62 7.66 -3 8 C-3.33 6.35 -3.66 4.7 -4 3 C-2.68 2.01 -1.36 1.02 0 0 Z " fill="#373F48" transform="translate(7,2)"/>
<path d="M0 0 C1.98 0.66 3.96 1.32 6 2 C5.34 3.65 4.68 5.3 4 7 C1 7 1 7 -0.6875 5.5 C-1.120625 5.005 -1.55375 4.51 -2 4 C-1.34 2.68 -0.68 1.36 0 0 Z " fill="#E47B91" transform="translate(24,2)"/>
<path d="M0 0 C2 0 2 0 3.625 1.5 C4.07875 1.995 4.5325 2.49 5 3 C4.67 3.99 4.34 4.98 4 6 C2.35 5.67 0.7 5.34 -1 5 C-0.67 3.35 -0.34 1.7 0 0 Z " fill="#F0D38B" transform="translate(11,16)"/>
<path d="M0 0 C-1.5830577 4.2742558 -4.50568404 6.26531794 -8 9 C-8 6 -8 6 -6.7578125 4.39453125 C-5.94957031 3.61142578 -5.94957031 3.61142578 -5.125 2.8125 C-4.59132813 2.28269531 -4.05765625 1.75289062 -3.5078125 1.20703125 C-2 0 -2 0 0 0 Z " fill="#FAA257" transform="translate(21,8)"/>
<path d="M0 0 C0.66 0 1.32 0 2 0 C4.1875 2.3125 4.1875 2.3125 6 5 C5.67 5.99 5.34 6.98 5 8 C2.5 6.25 2.5 6.25 0 4 C0 2.68 0 1.36 0 0 Z " fill="#505256" transform="translate(20,4)"/>
<path d="M0 0 C0.66 0.33 1.32 0.66 2 1 C1.01 2.485 1.01 2.485 0 4 C-0.66 4 -1.32 4 -2 4 C-2.33 5.32 -2.66 6.64 -3 8 C-3.33 6.35 -3.66 4.7 -4 3 C-2.68 2.01 -1.36 1.02 0 0 Z " fill="#5B6066" transform="translate(7,2)"/>
</svg>
