<svg width="21" height="21" viewBox="0 0 21 21" fill="none" xmlns="http://www.w3.org/2000/svg">
<g clip-path="url(#clip0_238_13)">
<path d="M16.324 0.813752L5.65602 11.4818C5.24857 11.887 4.92555 12.3691 4.70566 12.9C4.48578 13.4309 4.37339 14.0002 4.37502 14.5749V15.75C4.37502 15.9821 4.4672 16.2046 4.6313 16.3687C4.79539 16.5328 5.01795 16.625 5.25002 16.625H6.42514C6.99981 16.6266 7.56909 16.5142 8.10003 16.2944C8.63097 16.0745 9.11302 15.7515 9.51827 15.344L20.1863 4.676C20.6976 4.1634 20.9848 3.46892 20.9848 2.74488C20.9848 2.02084 20.6976 1.32635 20.1863 0.813752C19.6662 0.316659 18.9745 0.0392456 18.2551 0.0392456C17.5357 0.0392456 16.8441 0.316659 16.324 0.813752ZM18.949 3.43875L8.28102 14.1068C7.78763 14.5971 7.12077 14.8732 6.42514 14.875H6.12502V14.5749C6.12684 13.8792 6.40289 13.2124 6.89327 12.719L17.5613 2.051C17.7482 1.87246 17.9967 1.77283 18.2551 1.77283C18.5136 1.77283 18.7621 1.87246 18.949 2.051C19.1327 2.2352 19.2359 2.48473 19.2359 2.74488C19.2359 3.00502 19.1327 3.25455 18.949 3.43875Z" fill="white"/>
<path d="M20.125 7.85663C19.8929 7.85663 19.6704 7.94881 19.5063 8.11291C19.3422 8.277 19.25 8.49956 19.25 8.73162V13.125H15.75C15.0538 13.125 14.3861 13.4016 13.8938 13.8938C13.4016 14.3861 13.125 15.0538 13.125 15.75V19.25H4.375C3.67881 19.25 3.01113 18.9734 2.51884 18.4812C2.02656 17.9889 1.75 17.3212 1.75 16.625V4.375C1.75 3.67881 2.02656 3.01113 2.51884 2.51884C3.01113 2.02656 3.67881 1.75 4.375 1.75H12.2868C12.5188 1.75 12.7414 1.65781 12.9055 1.49372C13.0696 1.32962 13.1618 1.10706 13.1618 0.875C13.1618 0.642936 13.0696 0.420376 12.9055 0.256282C12.7414 0.0921872 12.5188 0 12.2868 0L4.375 0C3.2151 0.00138938 2.10311 0.462772 1.28294 1.28294C0.462772 2.10311 0.00138938 3.2151 0 4.375L0 16.625C0.00138938 17.7849 0.462772 18.8969 1.28294 19.7171C2.10311 20.5372 3.2151 20.9986 4.375 21H14.3001C14.8749 21.0016 15.4443 20.8893 15.9754 20.6694C16.5065 20.4495 16.9887 20.1265 17.3941 19.719L19.7181 17.3932C20.1257 16.988 20.4488 16.506 20.6688 15.9751C20.8888 15.4441 21.0014 14.8748 21 14.3001V8.73162C21 8.49956 20.9078 8.277 20.7437 8.11291C20.5796 7.94881 20.3571 7.85663 20.125 7.85663ZM16.1569 18.4818C15.8051 18.8326 15.3603 19.0755 14.875 19.1818V15.75C14.875 15.5179 14.9672 15.2954 15.1313 15.1313C15.2954 14.9672 15.5179 14.875 15.75 14.875H19.1844C19.0761 15.3593 18.8335 15.8033 18.4844 16.156L16.1569 18.4818Z" fill="white"/>
</g>
<defs>
<clipPath id="clip0_238_13">
<rect width="21" height="21" fill="white"/>
</clipPath>
</defs>
</svg>
